<svg width="91" height="78" viewBox="0 0 91 78" fill="none" xmlns="http://www.w3.org/2000/svg">
<path d="M36.5856 20.6903C38.0025 22.1895 37.4917 24.6255 35.6017 25.4521L11.6149 35.9433C9.68502 36.7873 7.51623 35.4354 7.45157 33.33C7.27897 27.7103 7.09054 18.0344 7.60937 12.6881C8.0185 8.47224 9.12706 4.70986 9.9183 2.44156C10.3821 1.11193 11.7631 0.411421 13.0818 0.905582C15.1138 1.66707 18.2618 3.15172 21.5735 5.87284C25.4919 9.09249 32.6116 16.4851 36.5856 20.6903Z" fill="#111111"/>
<path d="M38.3844 25.2586C39.8013 26.7579 39.2905 29.1938 37.4005 30.0204L13.4137 40.5116C11.4839 41.3557 9.31506 40.0037 9.2504 37.8984C9.0778 32.2787 8.88936 22.6028 9.4082 17.2565C9.81732 13.0406 10.9259 9.27821 11.7171 7.00992C12.1809 5.68028 13.5619 4.97978 14.8806 5.47394C16.9126 6.23543 20.0607 7.72008 23.3724 10.4412C27.2907 13.6608 34.4104 21.0535 38.3844 25.2586Z" fill="#D9D9D9"/>
<path d="M54.4173 20.6903C53.0005 22.1895 53.5113 24.6255 55.4012 25.4521L79.388 35.9433C81.3179 36.7873 83.4867 35.4354 83.5514 33.33C83.724 27.7103 83.9124 18.0344 83.3936 12.6881C82.9844 8.47224 81.8759 4.70986 81.0846 2.44156C80.6208 1.11193 79.2398 0.411421 77.9212 0.905582C75.8891 1.66707 72.7411 3.15172 69.4294 5.87284C65.511 9.09249 58.3913 16.4851 54.4173 20.6903Z" fill="#111111"/>
<path d="M52.7132 25.2586C51.2964 26.7579 51.8072 29.1938 53.6971 30.0204L77.6839 40.5116C79.6138 41.3557 81.7826 40.0037 81.8473 37.8984C82.0199 32.2787 82.2083 22.6028 81.6895 17.2565C81.2803 13.0406 80.1718 9.27821 79.3805 7.00992C78.9167 5.68028 77.5357 4.97978 76.2171 5.47394C74.185 6.23543 71.037 7.72008 67.7253 10.4412C63.8069 13.6608 56.6872 21.0535 52.7132 25.2586Z" fill="#D9D9D9"/>
<ellipse cx="45.4269" cy="46.8799" rx="42.0275" ry="30.9527" fill="#111111"/>
<path d="M4.01496 55.2265C5.04516 54.0824 6.9276 54.4825 7.40336 55.9467L7.69427 56.842C8.17003 58.3063 6.88229 59.7365 5.37633 59.4164L4.45551 59.2206C2.94956 58.9005 2.35485 57.0702 3.38505 55.9261L4.01496 55.2265Z" fill="#111111"/>
<path d="M86.5026 55.2265C85.4724 54.0824 83.59 54.4825 83.1142 55.9467L82.8233 56.842C82.3475 58.3063 83.6353 59.7365 85.1412 59.4164L86.0621 59.2206C87.568 58.9005 88.1627 57.0702 87.1325 55.9261L86.5026 55.2265Z" fill="#111111"/>
<path d="M6.98808 61.1455C7.79836 59.9512 9.56817 59.9821 10.3363 61.2039L11.0728 62.3755C11.9185 63.7207 10.9335 65.4674 9.34472 65.4396L7.8312 65.4132C6.24247 65.3855 5.31895 63.6055 6.2111 62.2906L6.98808 61.1455Z" fill="#111111"/>
<path d="M83.5295 61.1455C82.7192 59.9512 80.9494 59.9821 80.1813 61.2039L79.4448 62.3755C78.599 63.7207 79.5841 65.4674 81.1729 65.4396L82.6864 65.4132C84.2751 65.3855 85.1986 63.6055 84.3065 62.2906L83.5295 61.1455Z" fill="#111111"/>
</svg>
